<?xml version="1.0" standalone="no"?>
<!DOCTYPE svg PUBLIC "-//W3C//DTD SVG 20010904//EN"
 "http://www.w3.org/TR/2001/REC-SVG-20010904/DTD/svg10.dtd">
<svg version="1.0" xmlns="http://www.w3.org/2000/svg"
 width="275.000000pt" height="183.000000pt" viewBox="0 0 275.000000 183.000000"
 preserveAspectRatio="xMidYMid meet">
<metadata>
Created by potrace 1.16, written by Peter Selinger 2001-2019
</metadata>
<g transform="translate(0.000000,183.000000) scale(0.100000,-0.100000)"
fill="#000000" stroke="none">
<path d="M0 1586 c0 -228 1 -245 20 -269 20 -25 20 -25 0 -20 -18 5 -20 0 -20
-50 0 -35 5 -57 13 -60 10 -4 10 -6 0 -6 -14 -1 -19 -80 -5 -82 4 0 20 -2 37
-4 17 -2 65 -6 108 -8 43 -3 81 -7 84 -10 2 -3 18 -1 35 4 19 5 36 5 43 -1 8
-6 18 -5 31 5 25 19 35 19 27 -1 -5 -13 -1 -15 23 -10 16 3 43 2 60 -3 22 -6
36 -5 43 2 20 20 39 16 39 -9 -1 -21 -2 -22 -12 -8 -10 13 -11 10 -8 -20 4
-32 7 -36 33 -36 26 0 29 3 29 35 0 19 5 35 10 35 6 0 10 -11 10 -25 0 -16 6
-25 15 -25 9 0 15 9 15 25 0 14 5 25 11 25 7 0 9 -10 5 -27 -6 -25 -5 -26 8
-10 12 15 14 16 20 2 3 -8 10 -15 16 -15 7 0 4 12 -6 29 -16 28 -17 34 -1 88
31 113 42 131 84 136 l38 4 -38 1 c-30 2 -43 -4 -63 -25 -14 -15 -23 -32 -20
-39 3 -7 -2 -34 -10 -61 -24 -80 -24 -81 -35 -60 -8 14 -4 29 16 63 21 36 24
48 15 57 -9 8 -11 8 -7 1 4 -6 -1 -20 -9 -30 -9 -10 -12 -13 -8 -5 5 10 3 12
-5 7 -7 -5 -10 -15 -7 -23 3 -8 2 -11 -3 -8 -5 3 -13 -4 -16 -16 -4 -11 -9
-18 -12 -15 -4 3 -12 1 -20 -6 -11 -8 -12 -7 -7 6 4 9 1 16 -6 16 -10 0 -10 3
-1 14 7 8 21 13 32 11 11 -2 17 0 14 5 -3 5 11 34 32 65 27 40 43 55 55 51 10
-2 16 -1 13 4 -2 4 23 13 56 20 36 8 72 23 87 36 13 13 28 21 33 18 5 -3 9 0
9 6 0 7 15 11 38 10 73 -4 92 0 92 15 0 8 -6 14 -12 12 -7 -1 -13 6 -13 15 0
9 -4 20 -9 25 -5 4 -6 3 -2 -5 4 -7 1 -15 -9 -18 -25 -10 -27 1 -4 29 11 15
15 27 9 27 -6 0 -9 3 -7 8 9 14 -13 53 -25 46 -7 -3 -1 5 14 18 15 14 25 28
21 32 -15 14 11 4 40 -16 29 -20 30 -20 17 -3 -8 11 -19 24 -25 28 -6 5 -3 7
7 3 11 -3 26 3 38 17 13 13 24 18 28 12 11 -16 34 -17 43 -3 7 10 9 9 9 -4 0
-9 -7 -24 -16 -33 -14 -13 -19 -14 -25 -3 -7 10 -9 10 -9 -2 0 -9 13 -30 30
-48 18 -21 27 -38 23 -49 -4 -11 -3 -14 5 -9 7 4 12 2 12 -3 0 -6 5 -11 10
-11 6 0 10 7 10 16 0 8 5 12 10 9 6 -4 10 -14 9 -23 -1 -10 1 -25 5 -34 11
-23 -2 -42 -18 -28 -10 7 -22 2 -47 -20 l-34 -30 48 0 c27 0 46 4 42 9 -3 5
-1 12 5 16 5 3 10 0 10 -7 0 -11 33 -14 168 -12 92 0 169 2 172 3 12 6 58 6
54 0 -6 -11 97 -21 109 -10 7 5 36 12 66 15 30 3 56 8 58 10 3 2 18 0 35 -6
26 -9 28 -12 15 -26 -16 -16 -53 -9 -42 8 6 10 -104 4 -114 -5 -2 -3 4 -14 14
-25 21 -24 34 -18 14 6 -12 14 -11 16 6 12 11 -2 19 -11 17 -19 -5 -32 102
-70 125 -44 5 4 1 5 -7 0 -12 -6 -12 -5 -4 4 7 8 38 13 73 13 58 1 60 1 48 22
-6 12 -10 24 -9 27 1 4 -8 5 -18 2 -12 -3 -20 0 -20 6 0 7 -4 10 -9 7 -5 -3
-12 1 -15 9 -3 8 -9 15 -13 14 -18 -3 -30 2 -51 22 -24 21 -59 22 -54 0 1 -7
-2 -10 -8 -6 -6 3 -8 10 -5 15 3 4 -2 10 -9 13 -8 3 -17 1 -20 -6 -3 -9 -8 -8
-15 3 -7 10 -11 11 -11 3 0 -20 -39 -15 -52 7 -13 20 -13 20 -28 0 -17 -22
-20 -23 -118 -18 -35 2 -64 -1 -66 -7 -3 -6 -5 -5 -5 1 -1 14 -191 7 -206 -7
-5 -5 -15 -9 -22 -9 -11 0 -11 5 -3 20 6 12 16 18 23 14 7 -4 9 -4 5 1 -4 4 0
21 8 37 8 16 12 33 9 38 -8 13 225 17 246 5 16 -10 10 17 -8 39 -18 21 -18 21
3 4 11 -10 29 -18 40 -17 18 0 18 1 -1 10 -16 7 -14 9 13 6 22 -3 29 0 22 7
-18 18 -11 21 36 18 35 -3 50 0 67 16 23 21 96 28 126 12 10 -5 23 -3 34 5 21
15 23 29 2 22 -8 -4 -17 -2 -20 4 -4 5 -3 9 2 8 4 -1 10 0 13 1 21 8 39 7 34
-2 -5 -8 18 -9 73 -5 68 5 82 3 94 -12 34 -39 34 -44 -2 -39 -19 3 -45 2 -59
-3 -18 -5 -8 -7 36 -8 34 -1 82 -4 108 -7 31 -5 46 -3 46 5 0 6 -8 11 -17 12
-10 0 -13 3 -7 5 17 7 5 42 -15 47 -9 2 1 4 22 4 20 1 37 -3 37 -8 0 -4 -7 -6
-16 -2 -9 3 -15 2 -12 -3 2 -5 10 -23 17 -40 10 -26 16 -30 38 -26 22 4 25 2
20 -12 -4 -10 -7 -27 -7 -39 0 -18 -2 -19 -10 -7 -9 13 -11 13 -19 0 -5 -8 -7
-18 -5 -22 3 -4 1 -8 -4 -8 -6 0 -12 7 -16 15 -7 20 -36 8 -36 -16 0 -14 -9
-19 -47 -22 -35 -2 -27 -4 27 -5 52 -1 70 1 60 8 -13 8 -12 10 3 10 9 0 17 -6
17 -12 0 -9 2 -10 8 -2 11 18 52 28 52 13 0 -7 6 -4 14 7 8 10 18 16 22 11 4
-4 2 -7 -4 -7 -25 0 -10 -29 18 -35 16 -4 33 -11 37 -17 4 -8 0 -9 -13 -4 -15
6 -17 5 -6 -5 14 -15 17 -69 3 -69 -4 0 -8 -25 -8 -55 0 -40 4 -55 13 -55 10
0 14 13 14 41 0 32 3 40 15 35 9 -3 15 0 15 9 0 25 1 30 13 43 6 8 22 12 36 9
24 -5 25 -4 6 9 -18 13 -17 14 8 14 21 0 27 -5 28 -22 0 -15 2 -18 6 -8 3 8
12 23 21 32 14 17 17 16 46 -15 17 -18 22 -23 11 -10 -17 21 -17 25 -5 34 12
9 11 10 -4 5 -15 -5 -17 -4 -7 8 8 10 9 16 1 21 -14 9 -3 25 17 25 12 0 13 -3
4 -14 -7 -9 -8 -17 -2 -20 5 -3 11 -1 13 6 3 9 10 8 23 -5 12 -13 26 -16 45
-12 16 3 31 2 35 -4 18 -30 22 7 24 204 l2 215 -426 0 c-264 0 -425 -4 -425
-10 0 -5 35 -10 78 -12 l77 -3 -40 -12 c-22 -7 -67 -17 -100 -22 -58 -10 -58
-10 -7 -5 32 3 52 1 52 -6 0 -5 -10 -10 -22 -11 -13 0 -17 -3 -10 -6 8 -3 34
0 58 7 31 9 48 10 55 3 7 -7 3 -10 -13 -9 -13 1 -41 -4 -63 -10 -33 -10 -44
-9 -60 2 -24 18 -35 18 -35 -1 0 -8 7 -15 16 -15 8 0 12 -4 9 -10 -3 -5 -2
-10 2 -10 5 0 14 -9 21 -20 10 -17 10 -20 -4 -20 -8 0 -13 4 -9 9 10 16 -12
21 -25 6 -13 -16 -56 -11 -75 8 -7 7 -6 8 3 3 7 -4 15 -1 18 9 6 14 8 14 25
-1 11 -9 19 -13 19 -8 0 5 -9 15 -20 22 -11 7 -20 17 -20 23 0 5 4 8 9 4 15
-8 21 9 10 25 -8 12 -12 12 -16 3 -5 -15 -23 -17 -23 -4 0 5 16 15 35 22 25 9
35 19 35 34 -1 20 -1 20 -15 1 -13 -18 -15 -18 -15 -3 0 15 -3 16 -21 6 -16
-8 -20 -8 -14 1 5 8 -51 11 -222 10 -218 -2 -229 -3 -253 -24 l-25 -21 20 23
20 24 -103 -3 c-82 -3 -101 -6 -97 -17 4 -10 0 -12 -11 -8 -11 4 -15 2 -11 -8
8 -21 -25 -30 -39 -12 -14 20 -24 20 -24 1 0 -8 5 -15 10 -15 18 0 11 -15 -12
-25 -13 -6 -22 -17 -20 -25 3 -11 1 -12 -8 -4 -17 17 -46 6 -59 -22 -9 -20 -8
-24 5 -24 8 0 12 -5 9 -10 -5 -8 -11 -8 -20 0 -7 6 -20 8 -29 4 -9 -3 -16 -1
-16 4 0 6 6 12 13 15 6 2 3 3 -8 1 -11 -2 -27 1 -35 6 -12 8 -12 10 5 11 11 1
32 0 48 -1 52 -3 17 38 -48 55 l-30 8 25 7 c14 5 45 9 70 10 l45 2 -39 9 c-66
16 -55 19 46 17 71 -2 94 0 91 9 -4 9 -136 12 -559 12 l-554 1 0 -244z m456
-207 c4 -1 11 5 15 13 7 10 9 9 9 -3 0 -9 7 -22 15 -29 10 -9 15 -9 15 -1 0
16 17 13 24 -4 9 -23 -4 -44 -22 -38 -9 4 -6 -3 8 -14 14 -12 26 -20 27 -20 1
1 4 21 6 44 6 46 13 63 28 63 6 0 7 -5 3 -12 -4 -6 3 -4 17 5 25 18 44 22 35
8 -3 -5 1 -14 9 -21 8 -7 12 -17 8 -24 -3 -6 -2 -7 2 -3 5 4 15 -3 22 -15 7
-13 12 -18 13 -11 0 7 7 10 15 7 11 -5 13 -2 9 10 -8 20 3 21 21 2 12 -11 4
-17 -55 -35 -39 -12 -83 -23 -100 -23 -20 -1 -30 -6 -30 -17 0 -13 -2 -14 -9
-2 -5 8 -16 11 -24 8 -16 -6 -33 24 -29 48 1 6 -8 12 -20 12 -16 2 -19 0 -9
-6 10 -7 8 -12 -10 -25 l-23 -16 33 0 c26 0 31 -3 23 -13 -15 -17 -115 -21
-105 -4 4 8 2 8 -9 -1 -13 -10 -17 -10 -22 3 -3 8 -1 15 4 15 6 0 10 7 10 15
0 23 -36 -12 -49 -49 -9 -23 -16 -27 -35 -22 -15 4 -26 1 -29 -7 -3 -7 -6 -5
-6 5 -1 15 -4 15 -28 2 -16 -7 -39 -14 -53 -13 -25 1 -25 1 4 13 20 9 25 15
15 19 -10 4 -9 6 4 6 9 1 17 6 17 11 0 6 8 10 18 10 14 0 15 -2 2 -10 -11 -7
-1 -9 35 -9 28 1 42 3 33 6 -10 2 -18 11 -18 20 0 10 -6 13 -16 9 -10 -4 -14
-1 -12 6 3 7 16 14 29 14 63 3 90 16 101 47 4 11 67 17 73 6 4 -5 1 -9 -6 -9
-7 0 -9 -3 -6 -6 9 -9 38 16 32 27 -3 4 -15 6 -26 4 -14 -3 -19 0 -16 9 3 8 2
18 -1 22 -4 5 1 1 10 -9 9 -10 20 -18 24 -18z"/>
<path d="M1140 1320 c-129 -11 -130 -11 -132 -78 l-2 -57 -3 53 c-3 34 1 59 9
69 10 13 9 15 -7 11 -19 -3 -20 -11 -17 -116 3 -113 3 -113 -18 -102 -12 6
-19 18 -16 25 4 10 -3 12 -30 8 -22 -4 -34 -2 -34 6 0 14 -29 1 -54 -25 -14
-14 -15 -12 -9 18 17 92 39 142 63 149 19 5 12 7 -24 8 -46 1 -48 0 -30 -14
12 -9 14 -14 6 -15 -9 0 -11 -7 -7 -21 5 -16 4 -19 -6 -14 -9 6 -11 2 -7 -13
4 -12 3 -20 -2 -17 -4 2 -13 -15 -20 -40 -8 -27 -20 -47 -31 -50 -11 -4 -19
-15 -19 -26 0 -11 -5 -17 -10 -14 -6 4 -8 10 -5 15 3 5 1 11 -5 15 -5 3 -10
-3 -10 -14 0 -12 -4 -21 -10 -21 -20 0 -9 -15 20 -28 18 -8 61 -13 112 -11 46
1 96 -2 112 -6 20 -5 31 -4 37 6 6 10 9 7 9 -13 0 -22 -3 -25 -22 -20 -21 5
-22 4 -9 -11 12 -16 11 -16 -22 -2 -41 17 -61 19 -53 6 3 -5 23 -12 43 -16 21
-5 45 -9 53 -11 58 -12 79 -17 107 -30 17 -8 35 -14 41 -14 5 0 15 -7 22 -15
16 -19 20 -19 -185 -1 -183 17 -198 20 -190 47 5 15 1 19 -17 19 -18 0 -20 -2
-8 -10 13 -8 12 -10 -2 -10 -10 0 -18 -4 -18 -9 0 -4 -34 -9 -75 -9 -72 -1
-75 0 -65 19 9 15 7 21 -5 25 -9 4 -19 4 -22 0 -4 -3 -1 -6 6 -6 9 0 9 -3 -1
-14 -9 -10 -20 -11 -37 -4 -46 17 -158 8 -145 -13 3 -5 -2 -9 -10 -9 -9 0 -16
-5 -16 -11 0 -6 -10 -19 -22 -30 -17 -14 -18 -17 -5 -13 9 3 18 2 18 -2 6 -38
5 -53 -2 -48 -5 3 -9 12 -9 20 0 8 -7 14 -16 14 -8 0 -13 -4 -10 -9 4 -5 -1
-8 -10 -7 -8 1 -20 9 -25 17 -7 11 -9 11 -9 -4 0 -10 -4 -15 -10 -12 -5 3 -10
0 -10 -7 0 -9 -3 -9 -10 2 -5 8 -10 10 -10 4 0 -12 -49 -12 -68 0 -6 3 -13 2
-17 -4 -3 -5 -11 -10 -18 -10 -6 0 -2 7 9 15 18 15 18 15 1 29 -11 8 -25 12
-32 10 -7 -3 -18 4 -25 15 -8 16 -20 21 -50 21 l-40 0 0 -130 0 -130 63 -1
c81 0 301 -9 352 -13 31 -3 40 -7 38 -20 0 -10 2 -42 6 -72 l8 -54 -29 0 c-15
0 -28 -5 -28 -11 0 -5 -4 -8 -8 -5 -5 3 -28 6 -53 7 -24 1 -91 12 -149 24 -58
13 -126 26 -153 30 -47 6 -47 6 -47 -23 l0 -29 98 -11 c53 -6 107 -9 120 -6
12 4 22 2 22 -3 0 -6 41 -13 91 -17 50 -4 114 -11 141 -16 28 -6 80 -11 115
-12 35 -1 66 -5 69 -10 5 -8 -25 -12 -91 -9 -36 1 -38 0 -15 -10 31 -13 289
-19 313 -7 20 10 46 0 28 -11 -6 -4 18 -5 53 -3 48 3 73 0 98 -13 25 -13 65
-19 161 -23 70 -2 127 -8 127 -13 0 -12 27 -12 32 0 2 5 73 12 158 15 270 10
394 16 435 21 22 3 96 6 164 6 67 1 119 4 113 8 -6 3 58 5 141 3 227 -3 347
-24 347 -59 0 -7 7 -13 15 -13 10 0 15 10 15 30 0 20 -5 30 -15 30 -8 0 -15 7
-15 15 0 9 -10 16 -25 16 -33 2 -38 3 -52 12 -7 4 -32 7 -55 6 -47 -2 -188 20
-188 30 0 3 -25 4 -56 2 l-57 -3 7 28 c12 47 14 47 186 28 25 -3 77 -7 115
-10 39 -2 89 -6 113 -9 l42 -5 0 145 0 145 -30 0 c-16 0 -30 4 -30 8 0 5 14 7
30 4 l30 -4 0 56 c0 33 -4 56 -11 56 -5 0 -7 -5 -4 -10 3 -6 -1 -13 -10 -17
-10 -3 -20 0 -25 6 -5 9 -9 8 -14 -5 -6 -16 -8 -16 -26 1 -11 10 -23 15 -26
12 -4 -4 1 -10 10 -13 14 -5 15 -9 4 -15 -10 -7 -8 -10 9 -15 15 -4 22 -13 20
-25 -4 -24 -27 -50 -27 -30 0 7 -4 10 -9 6 -5 -3 -12 -1 -16 5 -3 5 3 10 14
10 12 0 21 5 21 10 0 6 -14 10 -30 10 -17 0 -42 7 -55 16 -23 15 -25 15 -25 0
0 -9 -6 -15 -12 -13 -8 1 -14 -10 -16 -27 -2 -18 0 -26 7 -21 6 3 11 2 11 -3
0 -6 -7 -13 -16 -16 -8 -3 -13 -10 -9 -15 3 -6 12 -8 19 -5 8 3 16 1 20 -4 12
-20 -37 -4 -62 21 -21 22 -23 27 -9 27 9 0 17 -7 17 -16 0 -8 4 -13 9 -10 4 3
6 18 3 33 -3 16 -7 22 -9 16 -3 -7 -11 -13 -18 -13 -18 0 -46 40 -38 53 3 6 1
7 -6 3 -6 -4 -9 -12 -6 -17 4 -5 2 -9 -3 -9 -5 0 -10 21 -11 48 -2 26 -3 52
-4 58 0 6 -5 11 -11 12 -6 0 -31 3 -56 6 -25 3 -108 8 -185 11 -361 12 -418
15 -423 20 -3 3 -10 5 -16 5 -6 0 -4 -5 4 -10 11 -7 6 -10 -20 -10 -39 0 -278
-18 -327 -24 -18 -3 -38 -8 -44 -12 -8 -5 -9 -3 -4 6 6 10 4 12 -7 7 -9 -3
-35 1 -59 8 l-44 14 55 0 c77 2 413 30 480 41 30 5 92 9 137 9 45 1 85 6 88
11 3 6 1 10 -5 10 -6 0 -8 5 -5 10 4 7 -52 10 -161 10 -92 0 -165 2 -163 5 3
2 73 5 156 6 117 1 155 4 164 15 6 8 14 12 18 10 3 -2 6 10 6 27 0 31 -1 32
-48 33 -44 1 -50 4 -84 48 -20 25 -38 44 -41 42 -8 -9 81 -105 92 -99 6 3 8 3
4 -2 -4 -4 -3 -16 3 -27 9 -17 8 -18 -4 -11 -22 12 -108 133 -102 142 5 9 -24
38 -34 34 -3 -2 -6 1 -6 6 0 6 -11 20 -25 33 -24 23 -28 23 -275 24 -137 1
-288 -2 -335 -6z m-602 -623 c6 -20 7 -35 2 -32 -12 7 -20 -34 -13 -67 4 -21
8 -26 14 -16 15 23 10 -30 -6 -68 -28 -67 -65 -18 -65 86 0 72 13 129 32 141
17 11 24 2 36 -44z m595 4 c-2 -15 1 -20 9 -15 7 4 8 3 4 -4 -4 -6 -2 -20 3
-31 9 -16 7 -20 -15 -25 -21 -6 -24 -9 -14 -21 10 -12 10 -15 -1 -15 -9 0 -6
-5 6 -12 19 -11 19 -11 0 -19 -17 -7 -18 -8 -2 -8 9 -1 17 -7 17 -15 0 -8 5
-18 12 -22 7 -4 8 -3 4 4 -4 7 -2 12 3 12 25 0 0 -105 -28 -120 -24 -12 -45
11 -60 65 -12 43 -15 163 -5 189 9 25 34 19 34 -7 0 -31 25 -31 26 0 1 12 -2
20 -7 17 -13 -8 -11 10 3 24 10 10 10 15 -2 23 -13 9 -13 10 0 6 9 -2 14 -14
13 -26z m1032 -47 c3 -20 3 -39 0 -43 -8 -7 -165 -19 -282 -20 -82 -1 -83 -1
-85 24 -4 64 -11 60 97 66 55 3 137 6 181 7 l82 2 7 -36z"/>
<path d="M0 231 l0 -231 410 0 c321 0 410 3 410 13 0 8 4 7 10 -3 9 -13 11
-13 20 0 6 10 10 11 10 3 0 -7 5 -13 10 -13 6 0 10 8 10 17 0 15 2 14 14 -3 8
-10 18 -15 22 -11 5 4 3 12 -4 16 -7 4 -10 15 -6 24 3 10 1 17 -5 17 -6 0 -11
-6 -12 -12 0 -7 -4 -4 -9 7 -8 18 -9 18 -10 -5 l-2 -25 -8 25 c-8 24 -8 24 -9
3 -1 -13 -5 -23 -11 -23 -5 0 -10 10 -11 23 -1 21 -1 21 -8 -3 -7 -24 -7 -24
-14 7 -9 47 -63 92 -109 93 -37 0 -38 1 -38 39 0 22 5 41 13 44 6 3 -13 8 -43
12 -46 7 -51 10 -30 16 14 4 48 11 75 15 43 6 46 8 25 15 -14 4 -51 7 -82 8
-43 1 -58 5 -58 15 0 8 8 17 17 19 17 4 17 5 1 6 -10 0 -18 6 -18 11 0 6 -19
10 -43 10 -23 0 -52 7 -65 15 -14 11 -46 16 -94 17 -46 0 -66 3 -53 8 19 7 18
8 -5 12 -14 3 -8 4 12 2 20 -2 39 0 42 5 6 10 -168 26 -183 17 -5 -4 -11 -2
-13 3 -1 5 -38 12 -80 16 l-78 7 0 -231z"/>
<path d="M2390 90 c-8 -5 -33 -7 -55 -5 l-40 5 39 -10 c22 -6 45 -15 53 -21
15 -13 18 -49 3 -49 -5 0 -10 9 -10 20 0 13 -7 20 -19 20 -11 0 -21 6 -24 13
-2 6 -8 9 -12 5 -4 -4 -2 -14 5 -23 17 -21 8 -28 -48 -36 -26 -3 69 -7 211 -8
242 -1 257 0 257 17 0 15 -24 23 -167 50 -192 37 -174 35 -193 22z"/>
</g>
</svg>
