<?xml version="1.0" standalone="no"?>
<!DOCTYPE svg PUBLIC "-//W3C//DTD SVG 20010904//EN"
 "http://www.w3.org/TR/2001/REC-SVG-20010904/DTD/svg10.dtd">
<svg version="1.0" xmlns="http://www.w3.org/2000/svg"
 width="300.000000pt" height="168.000000pt" viewBox="0 0 300.000000 168.000000"
 preserveAspectRatio="xMidYMid meet">
<metadata>
Created by potrace 1.16, written by Peter Selinger 2001-2019
</metadata>
<g transform="translate(0.000000,168.000000) scale(0.100000,-0.100000)"
fill="#000000" stroke="none">
<path d="M1054 1620 c-11 -4 -55 -11 -97 -15 -42 -4 -77 -11 -77 -16 0 -5 -8
-9 -19 -9 -10 0 -30 -11 -45 -25 -24 -22 -37 -25 -134 -30 -59 -2 -123 -10
-142 -15 -22 -7 -84 -8 -164 -4 -98 5 -130 4 -136 -6 -4 -7 -30 -13 -61 -13
-30 -1 -46 -3 -36 -5 33 -7 17 -22 -23 -22 -22 0 -40 -4 -40 -10 0 -5 -18 -10
-40 -10 l-40 0 0 -150 0 -150 40 0 c54 0 106 -23 113 -49 3 -11 1 -21 -4 -21
-5 0 -9 -11 -9 -25 0 -23 2 -24 21 -15 38 21 61 -4 34 -36 -12 -14 -38 -6 -28
9 4 6 0 8 -11 4 -10 -4 -19 -1 -22 8 -4 8 -10 12 -16 9 -5 -4 -8 4 -6 17 2 16
-3 25 -15 27 -10 2 -17 -3 -17 -12 0 -9 -4 -16 -10 -16 -5 0 -10 5 -10 10 0 6
-13 10 -28 10 -19 0 -29 -5 -29 -15 0 -11 12 -15 49 -15 l48 0 0 -59 c0 -64
11 -80 50 -76 14 2 34 4 45 5 15 1 17 3 5 8 -8 4 -17 16 -18 27 -3 16 -1 18 9
8 7 -7 23 -13 36 -13 12 0 27 -8 33 -17 8 -14 10 -1 8 53 -2 48 -7 70 -14 67
-6 -2 -14 5 -17 16 -6 25 14 28 33 6 7 -8 17 -15 22 -15 14 0 38 27 31 34 -4
3 -1 6 5 6 6 0 14 -5 17 -11 4 -5 19 -8 33 -6 15 2 21 2 15 0 -7 -3 -13 -9
-13 -14 0 -14 26 -11 40 6 7 8 20 15 29 14 10 0 11 -2 4 -6 -7 -2 -13 -9 -13
-13 0 -12 89 -10 96 2 4 6 -2 8 -14 4 -11 -4 -23 -3 -25 1 -3 5 33 9 79 9 46
1 84 -2 84 -7 0 -5 12 -9 28 -9 17 0 22 3 15 8 -8 5 2 8 24 9 33 1 35 0 18
-10 -11 -7 -20 -22 -21 -34 0 -19 5 -23 30 -23 46 0 76 11 76 26 0 8 -4 14 -8
14 -5 0 -9 7 -9 15 0 8 4 15 9 15 4 0 8 -4 8 -10 0 -5 7 -10 16 -10 8 0 12 5
9 10 -3 6 1 10 10 10 9 0 13 -4 10 -10 -5 -9 24 -15 48 -11 5 1 23 -3 40 -8
18 -6 73 -14 122 -17 l90 -7 -90 -17 c-49 -10 -128 -21 -175 -25 -47 -4 -102
-9 -122 -10 -21 -2 -42 -6 -48 -10 -5 -3 -10 0 -10 7 0 8 -3 9 -8 3 -8 -11
-15 -12 -117 -20 -38 -3 -85 -10 -104 -15 -19 -5 -36 -8 -38 -6 -6 6 76 36 98
36 19 0 20 4 15 36 -5 22 -3 41 5 50 14 17 0 18 -23 1 -9 -7 -19 -30 -23 -50
-8 -40 -32 -50 -55 -21 -8 8 -22 20 -32 25 -18 10 -19 6 -17 -40 2 -28 7 -51
13 -51 6 0 3 -5 -6 -11 -15 -8 -246 -20 -395 -19 l-42 0 0 -73 0 -74 82 2 c75
3 79 2 52 -10 l-30 -14 30 4 c85 11 105 17 99 27 -4 6 2 5 16 -2 15 -8 30 -9
51 -1 16 5 29 7 29 3 0 -4 5 0 10 8 7 11 10 11 10 2 0 -9 5 -10 19 -3 18 10
19 8 14 -30 -5 -35 -3 -41 16 -46 15 -4 21 -13 21 -34 0 -23 -5 -28 -28 -32
-25 -4 -25 -4 6 -6 35 -1 43 -21 18 -46 -12 -13 -195 -49 -204 -40 -3 3 60 18
147 33 25 4 46 12 48 18 3 9 -319 -25 -385 -41 l-22 -5 0 -260 0 -260 1500 0
1500 0 0 320 0 320 -27 -6 c-46 -10 -56 -14 -50 -21 9 -8 -12 -33 -27 -33 -6
0 -2 7 8 15 24 18 6 20 -39 4 -37 -14 -70 -7 -105 20 l-25 20 35 15 c21 9 27
15 17 16 -10 0 -27 -5 -38 -10 -15 -9 -24 -5 -49 20 -35 36 -36 42 -12 62 18
15 25 16 57 4 11 -4 34 -12 50 -18 17 -5 39 -14 50 -19 19 -8 137 -39 149 -39
3 0 6 4 6 8 0 4 -49 21 -110 37 -60 16 -110 33 -110 37 0 4 -9 8 -20 8 -11 0
-20 5 -20 10 0 6 -6 10 -14 10 -8 0 -16 6 -19 14 -4 9 4 13 24 14 16 0 38 4
49 7 11 3 20 2 20 -4 0 -5 -12 -12 -27 -14 -41 -7 134 2 185 9 33 5 42 10 42
26 0 19 -5 20 -47 15 -60 -8 -196 -16 -338 -21 -99 -3 -106 -3 -70 8 36 12 40
16 43 50 2 28 8 37 20 35 9 -1 101 -1 205 0 l187 1 0 26 c0 14 -4 23 -8 20 -5
-3 -5 18 -1 47 4 29 8 132 8 230 l1 177 -60 0 c-33 0 -60 4 -60 10 0 6 -19 10
-43 10 -23 0 -51 6 -62 14 -11 7 -45 17 -75 21 -29 4 -74 16 -100 27 -33 15
-78 21 -170 26 -83 4 -117 8 -100 14 35 11 -174 -1 -233 -14 -35 -7 -52 -7
-62 2 -8 7 -21 10 -30 7 -8 -4 -58 1 -112 9 -60 9 -127 12 -173 9 -71 -6 -168
2 -290 24 -30 6 -86 15 -125 21 -38 6 -74 16 -79 21 -6 5 -19 9 -30 9 -16 0
-17 -3 -8 -9 9 -5 -8 -8 -42 -7 -31 0 -56 4 -56 8 0 10 -9 9 -36 -2z m1006
-294 c63 -8 129 -19 145 -26 17 -6 80 -62 141 -124 96 -98 115 -113 137 -109
15 3 26 8 25 12 -5 45 35 60 46 16 4 -14 14 -25 22 -25 13 0 14 -3 5 -13 -8
-11 -5 -13 19 -9 17 2 33 8 36 13 3 5 12 9 20 9 8 0 12 -4 9 -10 -3 -5 -1 -10
4 -10 6 0 11 -16 11 -35 l0 -35 51 0 52 0 -6 50 c-5 39 -3 50 8 50 9 0 12 -6
9 -15 -4 -8 -1 -15 5 -15 6 0 11 7 11 15 0 8 7 15 16 15 10 0 14 -6 10 -15 -3
-9 0 -15 9 -15 9 0 12 6 9 15 -4 10 0 15 11 15 9 0 14 -4 10 -9 -3 -5 -1 -12
5 -16 5 -3 10 -23 10 -44 l0 -38 -67 -6 c-38 -4 -103 -7 -147 -7 -72 0 -80 -2
-98 -26 -11 -14 -27 -23 -34 -20 -8 3 -14 1 -14 -4 0 -16 -42 -22 -66 -10 -19
11 -27 10 -48 -3 -18 -12 -37 -15 -70 -11 -54 8 -59 24 -13 43 31 14 29 14
-73 23 -58 6 -108 15 -112 21 -6 9 -10 9 -16 0 -5 -7 -58 -16 -136 -23 -167
-13 -193 -13 -179 1 9 9 106 26 168 29 l20 1 -20 9 c-27 11 -85 12 -85 1 0 -5
-13 -11 -29 -13 -25 -4 -27 -2 -18 13 10 17 103 29 225 29 29 0 51 4 48 9 -3
5 5 8 18 7 13 0 22 -5 18 -10 -3 -5 2 -6 12 -3 10 4 75 8 144 8 70 1 117 4
105 6 -15 3 -23 12 -23 24 0 11 -7 22 -15 25 -8 4 -12 10 -9 15 3 5 -2 9 -11
9 -11 0 -15 5 -11 16 3 8 2 13 -3 10 -5 -3 -21 10 -36 29 -60 79 -111 126
-130 119 -12 -5 -16 -4 -12 3 9 14 -144 26 -256 21 -45 -2 -78 1 -80 7 -2 6
-76 12 -178 16 l-174 5 230 2 c143 1 274 -4 345 -12z m80 -54 c39 -3 62 -10
79 -25 50 -46 122 -140 128 -168 6 -29 28 -40 36 -16 2 7 3 6 3 -3 -1 -11 -12
-15 -36 -13 -19 0 -70 1 -112 2 -68 1 -78 3 -78 19 0 21 -41 145 -46 140 -2
-2 5 -31 15 -63 10 -33 16 -66 13 -73 -3 -8 -15 21 -28 64 -12 44 -30 99 -38
124 -10 29 -12 40 -3 30 7 -9 34 -16 67 -18z m-71 -56 c10 -34 22 -87 26 -118
l7 -56 -68 -5 c-38 -3 -87 -8 -109 -11 -37 -5 -38 -5 -12 5 24 10 28 15 22 38
-10 40 -32 49 -79 31 -25 -9 -26 -8 -26 26 0 19 7 63 16 97 l15 62 94 -3 95
-3 19 -63z m-290 -213 c-3 -21 2 -33 15 -33 9 0 12 -7 9 -20 -5 -19 -6 -19
-18 -4 -11 16 -18 15 -96 -4 -113 -28 -195 -37 -204 -22 -4 7 1 13 14 17 12 3
21 9 21 13 0 4 11 5 24 3 15 -3 25 1 29 11 5 13 0 16 -25 16 -17 0 -29 3 -25
6 3 3 56 9 119 13 62 5 119 9 126 10 6 0 11 -2 11 -6z m-140 -201 c45 -33 66
-89 66 -173 0 -64 -4 -81 -25 -112 -29 -42 -81 -71 -114 -63 -86 21 -137 140
-111 256 22 102 111 146 184 92z m1017 -29 c13 -8 15 -15 8 -20 -12 -9 -27
-86 -15 -79 4 3 12 -4 19 -15 11 -17 9 -21 -10 -28 -59 -22 -67 -22 -87 -2
-11 11 -28 17 -38 15 -24 -7 -29 43 -4 51 30 10 51 32 67 70 l15 37 -48 -5
-48 -6 45 12 c38 11 47 11 60 -3 9 -8 25 -20 36 -27z m-421 -115 c42 -11 61
-28 32 -28 -7 0 -120 -13 -250 -30 -290 -37 -277 -36 -277 -6 0 23 5 25 68 31
37 4 128 15 202 25 169 23 170 23 225 8z"/>
<path d="M1515 788 c-81 -64 -72 -258 15 -303 46 -24 87 -19 120 13 68 68 65
209 -5 279 -40 40 -88 44 -130 11z"/>
</g>
</svg>
