<?xml version="1.0" standalone="no"?>
<!DOCTYPE svg PUBLIC "-//W3C//DTD SVG 20010904//EN"
 "http://www.w3.org/TR/2001/REC-SVG-20010904/DTD/svg10.dtd">
<svg version="1.0" xmlns="http://www.w3.org/2000/svg"
 width="259.000000pt" height="194.000000pt" viewBox="0 0 259.000000 194.000000"
 preserveAspectRatio="xMidYMid meet">
<metadata>
Created by potrace 1.16, written by Peter Selinger 2001-2019
</metadata>
<g transform="translate(0.000000,194.000000) scale(0.100000,-0.100000)"
fill="#000000" stroke="none">
<path d="M0 830 l0 -830 534 0 c419 0 535 3 539 12 4 10 6 10 6 1 1 -19 1017
-19 1024 0 4 9 6 9 6 0 1 -10 56 -13 241 -13 l240 0 0 380 c0 209 -3 380 -7
380 -5 0 -24 -4 -44 -9 -44 -10 -69 0 -51 21 14 18 70 22 88 7 12 -10 14 8 14
115 0 105 -2 126 -15 126 -38 0 -54 23 -49 67 2 18 0 33 -6 33 -5 0 -10 5 -10
10 0 6 18 10 40 10 l40 0 0 84 c0 71 -3 84 -17 88 -16 4 -18 -2 -16 -46 l2
-51 -13 40 c-18 56 -41 57 -51 3 -7 -37 -9 -39 -12 -15 -4 24 -8 27 -43 27
-21 0 -40 -5 -42 -12 -3 -8 -14 -3 -32 15 -23 23 -34 26 -80 25 l-54 -2 40
-51 c22 -27 45 -49 50 -47 5 1 7 -2 4 -6 -7 -12 22 -37 51 -46 18 -6 22 -4 17
8 -5 13 2 16 40 16 28 0 46 -4 46 -12 0 -6 7 -19 16 -29 9 -10 17 -33 19 -51
1 -18 10 -51 18 -73 24 -60 22 -102 -5 -110 -13 -4 -35 -18 -49 -32 -26 -23
-28 -24 -55 -9 -16 8 -25 15 -21 16 5 0 1 7 -8 17 -9 9 -20 12 -23 7 -7 -8
-47 -12 -165 -13 -30 0 -54 5 -64 14 -17 17 -14 18 55 15 23 -1 42 3 42 9 0 5
10 12 23 14 12 3 -6 5 -40 4 -112 -1 -77 10 54 17 71 4 157 11 193 15 63 8 61
8 -42 10 -98 1 -107 3 -113 22 -9 26 -39 21 -43 -9 -3 -19 -9 -22 -50 -20
l-47 1 43 4 c36 4 42 7 42 28 0 12 7 25 15 29 8 3 15 10 15 16 0 6 -8 4 -17
-6 -9 -9 -19 -12 -20 -7 -2 5 -20 7 -40 5 -27 -4 -34 -1 -28 8 7 11 -17 12
-122 7 -71 -4 -152 -10 -179 -13 -36 -4 -45 -3 -34 5 13 9 12 11 -5 11 -33 1
2 16 74 30 56 12 65 17 76 44 l13 31 7 -38 c6 -30 12 -37 30 -37 l24 0 -33 98
c-19 55 -50 132 -70 172 l-37 73 57 -5 c31 -3 59 -10 63 -17 4 -6 15 -9 24 -5
10 3 17 1 17 -6 0 -6 -4 -8 -10 -5 -16 10 -12 0 18 -52 28 -48 81 -162 102
-217 6 -16 13 -26 16 -24 7 8 -36 110 -85 204 -22 43 -39 80 -36 82 4 5 52
-48 104 -115 32 -41 67 -145 55 -165 -3 -4 4 -8 14 -8 18 0 19 3 10 43 -6 23
-11 50 -12 59 0 9 -2 15 -4 13 -2 -2 -22 22 -43 53 -52 78 -124 151 -165 168
-43 18 -233 19 -257 2 -9 -7 -18 -29 -20 -48 -4 -33 -4 -33 -5 7 -1 27 3 45
12 50 19 11 -46 13 -429 14 -300 2 -451 -7 -542 -31 -27 -7 -31 -5 -30 10 1
10 4 17 8 14 4 -2 20 1 35 6 15 6 48 13 73 16 25 2 64 7 86 11 22 4 63 6 90 6
l50 -2 -55 10 c-68 12 -104 12 -108 -1 -4 -12 -22 -13 -22 -2 0 5 10 14 23 21
21 11 21 11 -5 6 -81 -15 -83 -15 -65 -7 10 4 19 12 19 16 0 24 -64 35 -92 15
-11 -8 -5 -9 23 -4 23 4 37 2 37 -5 0 -5 -10 -10 -21 -10 -18 0 -19 -2 -9 -15
10 -13 9 -15 -9 -15 -11 0 -21 5 -21 11 0 24 -30 39 -79 39 -49 0 -51 -1 -72
-42 -14 -28 -18 -43 -10 -46 13 -4 5 -22 -10 -22 -11 0 -12 106 -1 113 4 2 0
2 -8 -1 -41 -14 -80 -14 -80 0 0 10 -11 13 -40 10 -22 -2 -40 0 -40 6 0 5 -20
7 -47 5 -34 -4 -55 -13 -73 -32 -23 -23 -50 -38 -50 -27 0 8 61 66 71 66 5 0
7 5 4 11 -4 6 -19 7 -37 3 -26 -5 -30 -4 -25 10 4 10 1 16 -9 16 -8 0 -13 -4
-10 -9 12 -19 -55 -20 -102 -2 -35 14 -42 20 -27 23 11 2 -9 3 -43 2 -35 -2
-66 -5 -70 -8 -3 -3 -13 -6 -23 -6 -20 0 -33 27 -16 34 7 2 4 5 -5 5 -17 1
-18 -45 -18 -829z m1920 561 c19 -38 70 -168 70 -179 0 -3 -29 -2 -64 1 -54 5
-68 3 -89 -13 -31 -24 -33 -19 -36 74 -1 39 -5 74 -8 78 -11 19 8 57 34 66 54
20 71 15 93 -27z m-1138 -12 c-23 -17 -42 -37 -42 -44 0 -7 -9 -15 -20 -18
-15 -4 -20 -14 -20 -36 0 -17 -4 -31 -10 -31 -5 0 -9 -10 -8 -22 0 -13 -6 -36
-15 -53 -13 -24 -29 -33 -83 -47 -37 -10 -68 -17 -70 -16 -13 14 220 272 260
288 45 18 48 9 8 -21z m-352 -339 c-10 -6 -1 -9 28 -7 25 1 42 6 42 13 0 9 25
10 98 6 53 -4 220 -7 371 -7 242 0 268 -2 225 -13 -27 -7 -74 -20 -104 -29
-30 -9 -77 -18 -105 -19 -27 -2 -102 -5 -165 -8 -151 -7 -231 -14 -309 -28
-53 -10 -65 -16 -74 -38 -9 -23 -11 -23 -15 -5 -2 11 -7 23 -10 26 -7 7 -169
-4 -251 -16 -34 -5 -41 -3 -35 7 4 7 -4 3 -18 -9 -28 -27 -38 -29 -38 -8 0 33
100 80 265 124 97 26 125 29 95 11z m802 -19 c-17 -10 209 -23 313 -16 70 4
75 3 35 -6 -25 -5 -67 -15 -95 -21 -27 -6 -61 -11 -74 -10 -13 1 -30 -3 -38
-9 -9 -8 -35 -9 -86 -3 -39 4 -107 8 -149 8 -42 1 -73 5 -69 9 9 9 148 56 166
56 6 1 4 -3 -3 -8z m-727 -371 c-3 -5 1 -10 10 -10 9 0 13 5 10 10 -4 6 37 10
115 10 133 0 154 -7 139 -49 -14 -35 -2 -39 13 -5 7 16 21 30 32 32 17 3 17 2
2 -20 -21 -30 -20 -36 7 -41 12 -2 -74 -5 -190 -6 l-213 -1 0 45 0 45 41 0
c24 0 38 -4 34 -10z"/>
</g>
</svg>
