<?xml version="1.0" standalone="no"?>
<!DOCTYPE svg PUBLIC "-//W3C//DTD SVG 20010904//EN"
 "http://www.w3.org/TR/2001/REC-SVG-20010904/DTD/svg10.dtd">
<svg version="1.0" xmlns="http://www.w3.org/2000/svg"
 width="275.000000pt" height="183.000000pt" viewBox="0 0 275.000000 183.000000"
 preserveAspectRatio="xMidYMid meet">
<metadata>
Created by potrace 1.16, written by Peter Selinger 2001-2019
</metadata>
<g transform="translate(0.000000,183.000000) scale(0.100000,-0.100000)"
fill="#000000" stroke="none">
<path d="M2450 1508 c-24 -10 -24 -10 -5 -18 11 -5 14 -9 8 -9 -7 -1 -13 -7
-13 -15 0 -8 -13 -19 -30 -25 -27 -9 -30 -8 -31 12 l0 22 -11 -21 c-7 -16 -19
-21 -44 -21 -19 1 -34 6 -34 12 0 5 -4 4 -9 -3 -14 -23 -26 -18 -32 13 l-7 30
-1 -27 c-1 -25 -5 -28 -36 -28 -19 0 -35 5 -35 11 0 6 7 9 15 5 8 -3 15 -2 15
3 0 10 -37 21 -44 13 -3 -3 -6 -31 -6 -63 l0 -57 34 5 c19 2 37 0 40 -5 3 -5
-17 -10 -47 -11 l-52 -1 3 63 c3 60 2 64 -23 75 -19 9 -31 10 -40 2 -7 -6 -18
-9 -25 -8 -6 2 -17 -6 -23 -17 -17 -29 -29 -35 -55 -28 -12 3 -29 0 -37 -7
-12 -10 -15 -10 -15 0 0 9 -4 9 -13 2 -8 -7 -18 -6 -31 3 -10 8 -24 11 -31 9
-7 -3 -16 -1 -20 5 -8 14 -75 14 -75 0 0 -5 6 -7 13 -3 7 4 9 3 4 -2 -5 -5
-12 -9 -15 -10 -4 0 -19 -4 -35 -8 -20 -6 -35 -3 -55 10 -31 21 -142 23 -669
12 l-292 -6 -43 -26 c-24 -14 -59 -38 -78 -53 -19 -16 -29 -21 -23 -12 7 9 10
18 7 21 -3 3 2 5 12 5 9 -1 19 4 22 12 3 10 -1 12 -17 8 -14 -3 -21 0 -21 9 0
8 -9 14 -20 14 -16 0 -20 -7 -20 -35 0 -19 5 -35 10 -35 6 0 10 -7 10 -17 0
-9 -3 -13 -7 -10 -3 4 -11 0 -17 -8 -10 -13 -13 -12 -24 6 -8 12 -9 18 -3 14
7 -4 11 7 11 32 0 36 -3 39 -40 51 -49 15 -95 15 -122 1 -11 -6 -18 -7 -15 -2
4 6 -4 15 -16 21 -38 18 -56 21 -62 11 -4 -5 -10 -7 -14 -5 -4 3 -13 1 -20 -4
-8 -4 -28 -2 -47 6 -37 16 -88 19 -80 5 7 -10 -30 -24 -56 -21 -15 1 -18 -7
-18 -49 l0 -51 42 6 c37 4 40 4 23 -7 -11 -7 -23 -17 -26 -22 -4 -5 -14 -7
-23 -4 -14 6 -16 -10 -16 -144 l0 -151 42 5 c104 14 203 18 188 8 -12 -9 -10
-11 13 -11 30 0 34 -7 12 -24 -13 -10 -13 -16 6 -50 11 -22 27 -46 35 -53 20
-20 36 -53 27 -53 -4 -1 -35 -3 -68 -6 -33 -3 -103 -8 -155 -12 l-95 -7 -3
-392 -2 -393 1375 0 1375 0 0 640 0 640 -25 0 c-14 0 -25 5 -25 10 0 6 11 10
25 10 l25 0 0 112 c0 91 -2 109 -12 96 -16 -20 -80 -40 -101 -32 -10 3 -17 2
-17 -3 0 -18 -46 -8 -68 14 -13 13 -29 23 -37 23 -7 0 -19 2 -27 4 -7 3 -24 0
-38 -6z m-373 -379 c99 -18 306 -87 328 -110 7 -8 4 -8 -12 0 -12 6 -49 14
-83 18 -33 3 -60 11 -60 17 0 7 -4 6 -8 -2 -7 -10 -15 -10 -38 -2 -16 7 -30 7
-32 2 -1 -5 -33 -4 -75 3 -40 7 -115 12 -169 11 -53 0 -94 2 -92 5 8 13 -45
19 -122 14 -55 -4 -74 -2 -64 5 8 5 39 10 68 10 33 0 51 4 47 10 -4 6 8 10 30
10 22 0 34 4 30 10 -3 6 4 10 17 10 18 0 20 -2 9 -9 -10 -7 0 -9 31 -8 25 1
44 6 41 11 -8 12 20 27 37 19 8 -3 61 -14 117 -24z m261 -416 c4 -37 5 -36
-131 -58 -87 -14 -167 -17 -167 -7 0 2 7 10 15 18 8 9 15 21 14 27 0 9 -2 8
-6 0 -5 -13 -33 -19 -33 -7 0 19 39 33 135 46 155 22 169 21 173 -19z"/>
</g>
</svg>
