<?xml version="1.0" standalone="no"?>
<!DOCTYPE svg PUBLIC "-//W3C//DTD SVG 20010904//EN"
 "http://www.w3.org/TR/2001/REC-SVG-20010904/DTD/svg10.dtd">
<svg version="1.0" xmlns="http://www.w3.org/2000/svg"
 width="284.000000pt" height="177.000000pt" viewBox="0 0 284.000000 177.000000"
 preserveAspectRatio="xMidYMid meet">
<metadata>
Created by potrace 1.16, written by Peter Selinger 2001-2019
</metadata>
<g transform="translate(0.000000,177.000000) scale(0.100000,-0.100000)"
fill="#000000" stroke="none">
<path d="M0 925 c0 -465 2 -845 5 -845 2 0 21 11 41 25 23 15 51 25 74 25 26
0 43 7 59 24 13 13 38 27 57 31 19 3 61 15 94 25 33 10 69 17 82 15 28 -6 83
-64 65 -70 -6 -3 -49 -16 -94 -30 -45 -14 -101 -35 -125 -46 l-43 -19 70 5
c39 3 133 10 210 16 288 22 1035 120 1060 139 6 4 37 11 70 14 74 9 171 33
205 51 14 8 21 14 15 15 -23 1 552 194 610 204 100 18 111 24 123 65 7 21 12
72 12 113 l0 75 58 19 c31 10 80 19 109 19 28 0 49 3 46 8 -2 4 5 7 16 7 21 0
21 2 21 480 l0 480 -352 -1 c-194 -1 -335 -5 -313 -9 l40 -7 -48 -2 c-30 0
-46 3 -42 9 4 7 -352 10 -1059 10 l-1066 0 0 -845z m2032 797 c9 -4 41 -31 72
-60 l56 -53 -30 -61 c-40 -83 -40 -89 13 -83 32 4 36 3 17 -4 -29 -10 -184
-14 -193 -5 -6 7 21 63 35 74 4 3 12 18 17 33 14 35 6 50 -53 102 -26 22 -46
43 -46 46 0 16 81 23 112 11z m-3 -316 c20 -18 48 -81 31 -71 -22 13 -17 -15
7 -39 20 -20 22 -26 9 -26 -9 0 -16 -7 -16 -15 0 -8 5 -14 12 -12 6 1 13 -5
15 -13 3 -12 -13 -18 -69 -27 -40 -6 -74 -8 -76 -3 -2 5 -10 6 -18 3 -8 -3
-14 1 -15 8 0 8 -6 -5 -14 -28 -14 -45 -14 -101 0 -124 7 -12 6 -12 -7 -1 -13
10 -18 9 -29 -4 -11 -13 -10 -17 2 -25 8 -5 20 -9 28 -9 19 0 61 40 61 58 0
12 3 12 15 2 12 -10 16 -9 21 3 5 14 77 34 176 51 15 3 32 7 37 10 12 8 27
-12 35 -47 5 -19 3 -26 -6 -25 -7 2 -15 14 -18 28 -3 14 -10 24 -15 22 -6 -2
-9 -10 -7 -18 2 -8 -4 -14 -13 -14 -8 0 -15 -8 -15 -18 0 -13 -14 -21 -53 -30
-68 -16 -77 -15 -77 3 0 14 -10 18 -27 13 -4 -2 -6 -10 -5 -19 2 -11 -6 -19
-22 -23 -13 -3 -32 -9 -43 -13 -16 -6 -16 -5 -4 10 8 11 9 17 3 17 -6 0 -16
-9 -22 -20 -6 -11 -19 -20 -29 -20 -28 0 -121 -41 -115 -51 3 -5 -2 -9 -11 -9
-9 0 -13 -4 -10 -10 3 -6 -4 -10 -17 -10 -13 0 -33 -8 -45 -18 -21 -17 -73
-115 -73 -139 0 -7 -10 -15 -22 -18 -13 -3 -43 -10 -68 -15 -48 -11 -245 -40
-270 -40 -12 1 -11 4 3 15 10 7 53 17 95 21 43 4 69 9 60 12 -10 2 -18 12 -18
23 0 11 5 17 10 14 6 -3 10 1 10 9 0 9 -4 16 -10 16 -5 0 -10 9 -10 20 0 11 5
20 12 20 6 0 9 2 6 5 -3 3 -78 -4 -167 -17 -123 -17 -162 -26 -165 -38 -2 -8
-7 -27 -10 -42 -5 -21 -12 -28 -31 -28 -18 0 -25 5 -25 19 0 23 -18 31 -78 32
-46 2 -46 2 -12 9 34 7 34 7 5 8 -16 1 -61 -2 -98 -7 -38 -4 -70 -3 -73 1 -3
5 -9 6 -14 3 -4 -3 -13 2 -20 10 -8 9 -8 15 -2 15 6 0 13 -6 15 -12 3 -7 6 -4
6 7 1 17 3 17 11 5 5 -8 10 -10 10 -3 0 18 55 33 70 20 10 -9 11 -9 8 3 -5 15
13 40 29 40 4 0 21 7 37 15 16 9 41 16 55 17 45 2 154 40 206 72 35 22 68 32
113 37 35 4 69 12 75 19 9 10 8 11 -8 7 -46 -12 -225 -18 -225 -8 0 6 15 11
33 12 17 0 41 2 52 4 11 1 51 6 88 9 38 4 107 13 153 21 109 20 116 21 134 28
8 3 69 8 135 12 66 3 121 8 123 9 2 2 8 63 14 136 8 109 7 134 -4 142 -7 5
-67 6 -133 4 -87 -4 -110 -3 -83 4 56 14 181 25 285 25 74 -1 96 -4 112 -19z
m-969 -210 c0 -7 -32 -53 -71 -102 -57 -72 -78 -91 -111 -101 l-40 -12 26 34
c40 52 30 55 -17 5 -55 -60 -36 -32 37 53 32 37 61 65 65 62 4 -2 25 14 46 35
40 41 65 51 65 26z m1468 -347 c59 -103 65 -265 9 -257 -33 5 -58 61 -73 159
-12 80 -11 95 2 120 8 16 19 29 24 29 5 0 23 -23 38 -51z m-759 -121 c34 -31
58 -92 71 -180 30 -203 -72 -276 -130 -92 -28 93 -35 193 -15 239 24 59 40 66
74 33z m-777 -188 c4 -19 6 -40 3 -47 -2 -6 -33 -14 -69 -18 -36 -4 -66 -10
-66 -14 0 -4 -18 -5 -40 -3 -35 4 -39 6 -28 19 10 12 9 14 -8 11 -14 -2 -20 4
-22 21 -2 15 0 21 7 17 6 -4 11 -2 11 3 0 6 -7 11 -15 11 -8 0 -15 -9 -15 -20
0 -11 -7 -20 -15 -20 -8 0 -15 5 -15 11 0 5 5 7 10 4 6 -3 10 -1 10 4 0 6 -10
11 -21 11 -17 0 -20 -4 -15 -22 3 -13 6 -29 6 -35 0 -20 40 -16 40 5 1 16 1
16 11 -1 6 -10 9 -20 7 -22 -1 -2 -37 -6 -78 -9 -41 -3 -70 -3 -63 0 7 3 9 12
6 20 -3 8 0 14 5 14 6 0 13 -8 15 -17 3 -10 5 -4 6 14 1 30 -13 54 -21 34 -1
-5 -8 -3 -15 4 -10 11 -2 15 40 20 74 10 112 15 197 30 111 19 123 17 132 -25z"/>
</g>
</svg>
