<?xml version="1.0" standalone="no"?>
<!DOCTYPE svg PUBLIC "-//W3C//DTD SVG 20010904//EN"
 "http://www.w3.org/TR/2001/REC-SVG-20010904/DTD/svg10.dtd">
<svg version="1.0" xmlns="http://www.w3.org/2000/svg"
 width="264.000000pt" height="191.000000pt" viewBox="0 0 264.000000 191.000000"
 preserveAspectRatio="xMidYMid meet">
<metadata>
Created by potrace 1.16, written by Peter Selinger 2001-2019
</metadata>
<g transform="translate(0.000000,191.000000) scale(0.100000,-0.100000)"
fill="#000000" stroke="none">
<path d="M0 1407 l0 -504 47 8 c101 17 98 18 127 -68 18 -56 26 -107 29 -181
4 -104 1 -114 -32 -93 -17 11 -51 -3 -51 -20 0 -6 17 -8 45 -3 51 7 62 -8 17
-24 l-27 -10 25 -2 c23 -1 23 -2 5 -9 -11 -5 -24 -6 -29 -3 -6 3 -37 6 -70 7
-35 1 -52 -1 -41 -5 18 -7 18 -9 3 -15 -9 -4 -22 -4 -28 0 -5 3 -10 1 -10 -5
0 -8 27 -10 90 -6 72 4 92 2 96 -9 4 -8 28 -16 62 -20 65 -7 114 -24 107 -35
-3 -5 8 -11 24 -15 16 -3 39 -17 52 -31 12 -13 40 -29 61 -34 21 -6 42 -20 48
-30 6 -11 17 -20 25 -20 8 0 15 -4 15 -10 0 -5 11 -12 25 -16 14 -3 22 -11 18
-17 -3 -6 -1 -7 5 -3 6 4 21 -4 32 -16 75 -82 110 -100 215 -114 28 -4 53 -12
57 -17 6 -10 110 -20 203 -19 30 0 35 -2 20 -8 -11 -5 32 -6 95 -4 120 4 231
-10 227 -30 -1 -6 5 -11 13 -11 8 0 14 5 13 12 -2 8 4 10 14 6 12 -5 14 -3 8
7 -5 9 -4 11 4 6 9 -6 9 -11 0 -22 -9 -12 -6 -14 22 -13 28 0 31 2 14 9 -18 8
-17 9 6 9 15 1 43 8 62 16 22 9 71 15 124 16 48 1 80 3 71 6 -10 2 -18 9 -18
15 0 7 30 8 90 3 57 -5 95 -3 103 3 16 13 56 17 88 8 15 -4 45 -3 67 3 23 7
68 13 101 14 34 1 61 5 61 8 0 7 35 21 57 23 7 1 18 7 25 14 6 6 29 12 49 12
37 0 84 30 60 38 -17 6 -13 22 7 22 9 1 28 7 40 14 22 12 21 13 -24 13 -32 0
-42 -3 -29 -8 21 -8 15 -10 -37 -14 -30 -2 -30 0 2 90 12 33 24 74 27 90 6 38
7 38 43 38 31 0 40 11 18 20 -10 4 -10 6 -1 6 6 1 14 -3 18 -9 3 -5 12 -7 19
-4 19 7 32 -16 15 -27 -9 -6 -10 -9 -2 -9 6 0 14 -8 16 -17 3 -10 5 323 6 740
l1 758 -151 -3 -152 -3 2 -95 c1 -67 -2 -91 -9 -80 -5 8 -7 27 -4 43 3 17 1
27 -6 27 -7 0 -11 -15 -10 -37 4 -81 0 -120 -12 -121 -28 -2 -45 -9 -98 -40
-47 -27 -51 -32 -28 -32 14 0 29 6 31 13 4 7 8 3 12 -10 4 -13 11 -23 15 -23
5 0 5 -10 2 -22 -5 -22 -5 -22 19 -6 13 9 23 22 21 30 -2 7 0 10 4 5 4 -4 16
0 26 10 17 15 18 15 19 -3 0 -14 0 -277 -1 -339 0 -6 -10 -15 -22 -20 -13 -6
-31 -25 -40 -44 -20 -40 -34 -51 -65 -51 -13 0 -23 -5 -23 -12 0 -6 -2 -9 -4
-7 -2 2 -1 22 3 45 7 35 5 43 -11 53 -11 7 -32 10 -46 7 -15 -3 -42 -7 -59 -8
-30 -2 -33 -5 -33 -37 0 -34 0 -34 -21 -15 -11 10 -25 27 -31 38 -9 16 -7 18
6 13 9 -4 16 -2 16 3 0 6 3 9 8 9 4 -1 17 -1 29 0 22 1 22 1 5 35 -9 18 -20
29 -23 24 -4 -6 -11 3 -17 18 l-10 29 -1 -32 c-1 -18 -5 -33 -10 -33 -5 0 -18
15 -30 33 -11 17 -21 25 -21 17 -1 -12 -3 -11 -14 3 -10 13 -15 14 -18 6 -3
-9 -14 -6 -36 10 -18 12 -30 27 -27 32 4 5 1 9 -5 9 -7 0 -27 14 -45 32 -33
31 -34 32 -29 104 3 45 1 75 -5 79 -7 4 -11 -19 -11 -70 0 -58 -3 -74 -12 -69
-24 15 -54 16 -363 18 -170 1 -210 0 -87 -1 222 -3 223 -4 217 -24 -5 -13 -2
-25 6 -31 11 -8 10 -9 -3 -4 -22 7 -23 -11 -6 -84 11 -47 10 -54 -6 -66 -10
-7 -15 -17 -11 -23 4 -7 -20 -23 -59 -41 -36 -17 -66 -37 -66 -45 0 -9 -14
-15 -37 -18 -21 -2 66 -5 192 -6 127 -2 223 -5 215 -7 -8 -3 -103 -8 -210 -13
-194 -8 -194 -8 -61 -9 l133 -2 -5 -26 -5 -27 122 6 c113 6 214 19 261 35 17
5 16 7 -10 14 -24 6 -20 6 15 3 24 -2 49 -10 55 -18 12 -17 70 -33 60 -17 -7
12 13 8 88 -16 23 -7 36 -13 28 -13 -7 -1 -31 4 -53 11 -24 7 -42 8 -46 2 -4
-5 -30 -20 -59 -33 -40 -19 -62 -23 -96 -18 -34 5 -53 1 -88 -16 -71 -36 -73
-38 -58 -48 11 -6 10 -9 -4 -14 -12 -5 -14 -11 -7 -25 14 -27 -7 -32 -147 -36
-122 -4 -123 -4 -178 27 -31 17 -102 50 -160 74 l-104 42 40 12 c55 17 46 20
-26 10 -47 -6 -78 -4 -140 11 -44 10 -98 23 -120 28 l-40 9 45 10 c33 8 39 11
20 13 -43 4 70 18 155 19 44 1 87 6 95 12 16 11 -216 5 -274 -8 -18 -4 -27 -2
-23 4 4 6 -7 48 -23 94 -16 46 -30 100 -31 119 -3 44 10 103 25 112 6 5 0 8
-14 8 l-25 1 29 15 c28 16 187 36 276 35 25 0 39 2 32 5 -6 3 -10 10 -6 15 3
5 -4 9 -15 9 -22 0 -23 2 -23 90 0 35 4 56 12 58 7 3 10 0 6 -6 -4 -6 -4 -35
0 -64 4 -29 9 -47 11 -40 3 6 9 10 14 6 5 -3 9 4 9 16 0 12 -5 18 -10 15 -6
-4 -10 6 -10 21 0 26 1 27 14 9 13 -18 13 -15 6 23 -4 23 -3 83 2 133 12 110
6 142 -25 137 -20 -3 -22 -8 -20 -66 2 -40 -1 -61 -7 -57 -6 4 -8 10 -5 15 5
7 -54 40 -71 40 -2 0 -4 -74 -4 -165 l0 -165 34 0 c19 0 37 -4 40 -9 4 -5 -11
-7 -34 -4 -29 4 -40 2 -40 -7 0 -10 -19 -12 -82 -7 -55 4 -78 3 -68 -3 11 -7
7 -10 -17 -10 -18 0 -33 5 -33 11 0 6 -8 3 -17 -6 -13 -14 -27 -16 -62 -11
-25 4 -54 7 -64 7 -9 0 -15 4 -12 9 3 5 1 12 -5 15 -6 4 -9 1 -8 -6 2 -6 -3
-14 -11 -17 -10 -3 -11 0 -5 9 6 11 5 12 -7 3 -15 -12 -69 -12 -106 1 -18 6
-21 4 -17 -12 4 -14 -4 -26 -28 -42 -18 -13 -57 -53 -85 -90 -29 -36 -60 -75
-68 -86 -12 -14 -18 -16 -21 -7 -10 23 -24 12 -24 -20 -1 -33 -22 -73 -33 -62
-3 4 -24 6 -47 6 l-40 -1 0 48 c0 26 -6 53 -12 60 -11 11 -9 12 11 6 16 -5 21
-4 17 4 -4 6 -18 11 -32 11 -22 0 -24 -4 -24 -44 0 -25 5 -48 10 -51 6 -3 10
-15 10 -26 0 -12 7 -19 19 -19 20 0 21 -9 4 -50 -6 -14 -14 -47 -18 -75 -15
-92 -16 -95 -41 -75 -13 12 -17 11 -25 -1 -5 -8 -9 -18 -9 -22 0 -11 -61 -6
-77 6 -10 7 -13 106 -13 434 l0 425 28 -2 c41 -3 52 -1 52 10 0 6 -17 11 -37
11 -35 2 -35 2 -8 6 27 4 44 17 45 34 0 4 -18 6 -40 5 -49 -3 -55 2 -33 26 15
17 15 18 -5 18 l-22 0 0 -503z m1835 -121 c98 -107 135 -154 135 -173 0 -30
-33 -8 -88 60 -33 39 -85 97 -116 127 -36 35 -56 63 -56 78 0 19 3 21 19 12
11 -5 58 -52 106 -104z m-594 -351 c57 -16 180 -84 187 -103 2 -6 -50 -12
-145 -17 -81 -3 -152 -7 -158 -8 -14 -3 -84 52 -96 76 -8 14 -8 18 0 13 6 -4
11 -3 11 2 0 13 112 62 130 57 8 -2 40 -11 71 -20z m259 -154 c0 -6 -11 -11
-25 -11 -14 0 -25 -4 -25 -10 0 -5 -8 -10 -17 -10 -15 0 -16 -2 -3 -10 18 -12
18 -12 -140 -10 -141 1 -140 1 -134 12 3 4 -4 8 -15 8 -12 0 -20 6 -18 13 2
14 69 20 255 25 82 2 122 0 122 -7z m638 -268 l-3 -58 -100 -6 c-55 -4 -165
-8 -245 -10 l-145 -4 -3 58 -3 57 103 0 c120 1 331 11 337 16 2 2 17 4 33 4
29 0 29 0 26 -57z m-1358 -3 c6 0 5 -11 0 -26 -7 -18 -7 -30 0 -39 5 -6 7 -15
3 -19 -4 -3 3 -13 15 -22 21 -14 32 -42 13 -29 -8 4 -8 -21 -1 -55 0 -3 9 13
20 35 l19 40 1 -51 c0 -59 -29 -108 -57 -97 -12 5 -14 3 -8 -8 8 -12 6 -12 -8
0 -18 14 -24 36 -7 26 6 -4 0 13 -14 37 -23 41 -30 90 -27 181 0 21 5 36 10
33 5 -3 12 6 17 22 l8 27 4 -27 c2 -16 7 -28 12 -28z m832 -159 c-8 -5 -13
-12 -13 -17 1 -5 -100 -10 -223 -12 -190 -2 -225 0 -236 13 -10 12 -10 15 4
15 10 0 15 3 13 8 -3 4 101 6 231 4 131 -1 231 -6 224 -11z"/>
<path d="M560 1721 l0 -188 48 -13 c26 -6 53 -14 60 -16 7 -2 11 0 8 4 -3 5
-6 97 -7 205 l-2 197 -53 0 -54 0 0 -189z"/>
<path d="M1850 1873 c0 -35 1 -35 19 -19 18 16 19 15 39 -17 13 -24 22 -63 27
-121 4 -47 11 -86 15 -86 4 0 11 32 15 70 4 39 11 70 16 70 5 0 9 -5 9 -11 0
-5 4 -8 9 -5 5 3 11 -1 15 -9 10 -26 29 -17 22 10 -5 21 -3 25 17 25 13 0 31
8 40 18 22 24 21 35 -1 28 -12 -4 -27 7 -52 39 l-35 44 -77 1 -78 0 0 -37z"/>
<path d="M849 1858 c-8 -14 -14 -84 -16 -190 l-4 -168 29 0 30 0 6 103 c3 56
8 122 12 147 6 48 -13 121 -33 127 -6 2 -17 -6 -24 -19z"/>
</g>
</svg>
